<?xml version="1.0" encoding="utf-8"?>
<!-- Generator: Adobe Illustrator 21.1.0, SVG Export Plug-In . SVG Version: 6.00 Build 0)  -->
<svg version="1.1" id="Layer_1" xmlns="http://www.w3.org/2000/svg" xmlns:xlink="http://www.w3.org/1999/xlink" x="0px" y="0px"
	 viewBox="0 0 230 70" style="enable-background:new 0 0 230 70;" xml:space="preserve">
<style type="text/css">
	.st0{fill:#FFFFFF;}
	.st1{fill:#B3B3B4;}
	.st2{fill:url(#SVGID_1_);}
</style>
<g>
	<g>
		<path class="st0" d="M94.9,16.2c-1.5-0.5-3.8-0.8-7-0.8h-4.5v20.9h6.9c2.7,0,4.8-0.4,6.3-1.1c1.5-0.8,2.7-1.9,3.6-3.5
			c0.9-1.6,1.4-3.4,1.4-5.5c0-2.4-0.6-4.5-1.8-6.3C98.6,18.2,97,16.9,94.9,16.2z M98,31.1c-0.9,1.3-2.2,2.2-3.8,2.8
			C93,34.3,91,34.4,88,34.4h-2.5V17.5H87c3.1,0,5.3,0.2,6.7,0.6c1.8,0.5,3.2,1.5,4.2,2.9s1.5,3.1,1.5,5.2
			C99.4,28.1,98.9,29.7,98,31.1z M122.3,23.7c-0.8-1.1-1.7-1.9-2.8-2.4c-1.1-0.5-2.2-0.8-3.6-0.8c-2.3,0-4.2,0.8-5.8,2.4
			c-1.6,1.6-2.4,3.5-2.4,5.7c0,2.3,0.8,4.2,2.4,5.8s3.5,2.4,5.8,2.4c1.3,0,2.4-0.3,3.5-0.8s2-1.3,2.9-2.3v2.7h2V20.9h-2V23.7z
			 M121.6,31.9c-0.5,0.9-1.3,1.7-2.3,2.2s-2.1,0.8-3.2,0.8s-2.2-0.3-3.1-0.8c-1-0.6-1.7-1.3-2.3-2.3c-0.6-1-0.9-2-0.9-3.1
			s0.3-2.1,0.9-3.1s1.3-1.7,2.3-2.3c1-0.5,2-0.8,3.2-0.8c1.8,0,3.3,0.6,4.5,1.8c1.2,1.2,1.8,2.7,1.8,4.5
			C122.4,29.9,122.1,30.9,121.6,31.9z M135.8,15.2h-2.1v5.7h-2.8v1.7h2.8v13.7h2.1V22.6h3.3v-1.7h-3.3V15.2z M159,23.7
			c-0.8-1.1-1.7-1.9-2.8-2.4s-2.2-0.8-3.6-0.8c-2.3,0-4.2,0.8-5.8,2.4s-2.4,3.5-2.4,5.7c0,2.3,0.8,4.2,2.4,5.8
			c1.6,1.6,3.5,2.4,5.8,2.4c1.3,0,2.4-0.3,3.5-0.8s2-1.3,2.9-2.3v2.7h2V20.9h-2L159,23.7L159,23.7z M158.3,31.9
			c-0.5,0.9-1.3,1.7-2.3,2.2s-2.1,0.8-3.2,0.8c-1.1,0-2.2-0.3-3.1-0.8c-1-0.6-1.7-1.3-2.3-2.3s-0.9-2-0.9-3.1s0.3-2.1,0.9-3.1
			c0.6-1,1.3-1.7,2.3-2.3c1-0.5,2-0.8,3.2-0.8c1.8,0,3.3,0.6,4.5,1.8c1.2,1.2,1.8,2.7,1.8,4.5C159.1,29.9,158.8,30.9,158.3,31.9z
			 M174.5,24.5c-1.6-1.1-2.5-1.8-2.8-2.1c-0.5-0.5-0.9-1-1.1-1.4c-0.2-0.4-0.3-0.9-0.3-1.3c0-0.7,0.3-1.4,0.8-1.9
			c0.6-0.5,1.3-0.8,2.1-0.8c0.7,0,1.3,0.2,1.9,0.5c0.6,0.3,1.3,1,2.1,2.1l1.8-1.3c-1-1.3-1.9-2.2-2.8-2.7c-0.9-0.5-1.8-0.7-2.9-0.7
			c-1,0-1.8,0.2-2.7,0.6c-0.8,0.4-1.4,1-1.9,1.8c-0.4,0.7-0.7,1.6-0.7,2.5c0,1.1,0.4,2.2,1.1,3.2c0.4,0.6,1.6,1.5,3.4,2.8
			c1.8,1.3,3,2.4,3.7,3.3c0.5,0.7,0.7,1.4,0.7,2.1c0,0.6-0.2,1.2-0.5,1.7s-0.8,1-1.5,1.3c-0.6,0.3-1.3,0.5-2,0.5
			c-1.7,0-3.2-1.1-4.5-3.4l-1.8,1.1c0.9,1.6,1.9,2.7,2.9,3.4c1.1,0.7,2.3,1,3.6,1c1.7,0,3.1-0.6,4.3-1.7c1.2-1.1,1.8-2.4,1.8-3.9
			c0-1-0.3-2.1-1-3.1C177.6,27.1,176.3,25.9,174.5,24.5z M187.3,14.6c-0.5,0-0.9,0.2-1.2,0.5c-0.3,0.3-0.5,0.7-0.5,1.2
			c0,0.4,0.2,0.8,0.5,1.1c0.3,0.3,0.7,0.5,1.2,0.5s0.9-0.2,1.2-0.5s0.5-0.7,0.5-1.1c0-0.5-0.2-0.8-0.5-1.2
			C188.1,14.7,187.7,14.6,187.3,14.6z M186.2,36.3h2.1V20.9h-2.1V36.3z M199.4,15.2h-2.1v5.7h-2.8v1.7h2.8v13.7h2.1V22.6h3.3v-1.7
			h-3.3V15.2z M220.4,33.4c-0.5,0.5-1.2,0.8-2,1.1s-1.6,0.4-2.4,0.4c-1.7,0-3.1-0.6-4.2-1.7c-1.1-1.1-1.7-2.6-1.8-4.4h14.3
			c0-2.1-0.6-3.9-1.8-5.3c-1.6-2-3.8-3-6.5-3c-2.6,0-4.7,1-6.3,2.9c-1.2,1.5-1.9,3.3-1.9,5.2c0,2.1,0.7,3.9,2.2,5.6
			c1.5,1.6,3.5,2.5,6.1,2.5c1.2,0,2.2-0.2,3.2-0.5c0.9-0.3,1.8-0.8,2.5-1.5s1.4-1.5,2-2.6l-1.7-0.9C221.5,32.2,221,32.9,220.4,33.4z
			 M212.1,23.9c1.1-1,2.5-1.5,4-1.5c0.9,0,1.9,0.2,2.7,0.6c0.9,0.4,1.6,0.9,2.1,1.5s0.9,1.5,1.2,2.5h-11.9
			C210.7,25.6,211.3,24.6,212.1,23.9z"/>
	</g>
</g>
<g>
	<g>
		<path class="st1" d="M83,47.5h1.8v7h0.8v-7h1.8v-0.8H83V47.5z M96,54.5h4.5v-0.8h-3.7v-3.1h3.7v-0.8h-3.7v-2.4h3.8v-0.8H96V54.5z
			 M111.7,47.7c0.5-0.3,1.1-0.4,1.8-0.4c0.6,0,1.1,0.1,1.6,0.3s0.9,0.6,1.2,1l0.6-0.5c-0.4-0.5-0.9-0.9-1.5-1.2s-1.3-0.4-2-0.4
			c-1.2,0-2.2,0.4-3.1,1.2c-0.8,0.8-1.2,1.7-1.2,2.9c0,1.1,0.3,2,1,2.8c0.8,0.9,1.9,1.4,3.3,1.4c0.7,0,1.4-0.1,2-0.4
			c0.6-0.3,1.1-0.7,1.5-1.1l-0.6-0.5c-0.7,0.9-1.7,1.3-2.8,1.3c-1,0-1.8-0.3-2.5-1c-0.7-0.6-1-1.4-1-2.4c0-0.6,0.1-1.2,0.4-1.7
			C110.7,48.4,111.1,48,111.7,47.7z M130.8,50h-4v-3.3H126v7.8h0.8v-3.8h4v3.8h0.8v-7.8h-0.8V50z M146.5,52.7l-5.3-6H141v7.8h0.8
			v-5.9l5.2,5.9h0.2v-7.8h-0.8v6H146.5z M160.5,46.5c-0.7,0-1.4,0.2-2.1,0.5c-0.6,0.4-1.1,0.9-1.5,1.5s-0.6,1.3-0.6,2.1
			c0,1.1,0.4,2.1,1.2,2.9c0.8,0.8,1.8,1.2,3,1.2s2.1-0.4,3-1.2c0.8-0.8,1.2-1.8,1.2-2.9c0-1.1-0.4-2.1-1.2-2.9
			C162.8,46.9,161.7,46.5,160.5,46.5z M163.5,52.3c-0.3,0.5-0.7,0.9-1.2,1.2s-1.1,0.4-1.7,0.4c-0.9,0-1.7-0.3-2.4-1
			c-0.7-0.6-1-1.4-1-2.3c0-0.6,0.1-1.2,0.4-1.7c0.3-0.5,0.7-0.9,1.2-1.2s1.1-0.4,1.7-0.4c0.6,0,1.2,0.1,1.7,0.4
			c0.5,0.3,0.9,0.7,1.2,1.2s0.4,1.1,0.4,1.7C164,51.2,163.8,51.8,163.5,52.3z M174.7,46.7h-0.8v7.8h3.8v-0.8h-3.1v-7H174.7z
			 M190.3,46.5c-0.7,0-1.4,0.2-2.1,0.5c-0.6,0.4-1.1,0.9-1.5,1.5s-0.6,1.3-0.6,2.1c0,1.1,0.4,2.1,1.2,2.9c0.8,0.8,1.8,1.2,3,1.2
			s2.1-0.4,3-1.2c0.8-0.8,1.2-1.8,1.2-2.9c0-1.1-0.4-2.1-1.2-2.9C192.5,46.9,191.5,46.5,190.3,46.5z M193.3,52.3
			c-0.3,0.5-0.7,0.9-1.2,1.2s-1.1,0.4-1.7,0.4c-0.9,0-1.7-0.3-2.4-1c-0.7-0.6-1-1.4-1-2.3c0-0.6,0.1-1.2,0.4-1.7
			c0.3-0.5,0.7-0.9,1.2-1.2s1.1-0.4,1.7-0.4c0.6,0,1.2,0.1,1.7,0.4c0.5,0.3,0.9,0.7,1.2,1.2s0.4,1.1,0.4,1.7
			C193.7,51.2,193.6,51.8,193.3,52.3z M208.3,51.5h2.5c-0.1,0.7-0.4,1.3-1,1.8s-1.3,0.7-2.1,0.7c-0.7,0-1.3-0.2-1.9-0.5
			c-0.6-0.3-1-0.7-1.3-1.2s-0.5-1.1-0.5-1.7c0-0.6,0.2-1.1,0.5-1.6s0.7-0.9,1.3-1.2s1.2-0.4,1.8-0.4c0.5,0,1,0.1,1.5,0.3
			s1,0.5,1.5,1l0.6-0.6c-0.6-0.5-1.1-0.9-1.7-1.1c-0.6-0.2-1.2-0.4-1.9-0.4c-0.8,0-1.6,0.2-2.2,0.5c-0.7,0.4-1.2,0.9-1.6,1.5
			c-0.4,0.6-0.6,1.3-0.6,2.1c0,1,0.3,1.9,1,2.6c0.9,1,2,1.5,3.5,1.5c1.2,0,2.2-0.4,2.9-1.1c0.7-0.7,1.1-1.7,1.1-2.9h-3.4L208.3,51.5
			L208.3,51.5z M225.1,46.7l-2,3.2l-2-3.2h-0.9l2.6,4.1v3.7h0.8v-3.7l2.5-4.1H225.1z"/>
	</g>
</g>
<g>
	<g>
		
			<linearGradient id="SVGID_1_" gradientUnits="userSpaceOnUse" x1="52.2833" y1="68" x2="52.2833" y2="-2" gradientTransform="matrix(1 0 0 -1 -14 68)">
			<stop  offset="0" style="stop-color:#FDE800"/>
			<stop  offset="1" style="stop-color:#FAA819"/>
		</linearGradient>
		<path class="st2" d="M50.3,26.8c0,4.3,4.5,3.7,4.5,3.7h13.3c0,0,2.6,0.1,5.3,2c-0.2-3.4-0.9-6.6-2.1-9.8c-6.3,0-16.5,0-16.6,0
			C53.8,23,50.3,22.6,50.3,26.8z M65.5,39.5H53.7c0,0-3.5-0.2-6.2-2c-1.9-1.2-6.2-4.2-6.2-11.1c0-6.8,5.5-12.3,12.3-12.3h12.9
			C60.2,5.6,49.9,0,38.4,0S16.5,5.6,10.2,14.2h10.3c0,0,5.5-0.3,11.3,3.6s9.1,10.1,9.1,17.7S35.5,50,31.6,52.5
			c-3.8,2.4-7.4,3.5-11.3,3.5H10.2c6.4,8.5,16.7,14,28.1,14c11.5,0,21.7-5.5,28.1-14h-0.1C62.7,56,37,56,37,56l4.1-8.9h24.4
			c0,0,4.6,0.5,4.6-3.6S65.5,39.5,65.5,39.5z M30,41.5c1.6-2.8,2-5.1,2-6.1c0-0.9-0.5-4.9-2-6.8c-1.5-1.9-3.5-5.5-9.9-6
			c-0.4,0-9.1,0-14.7,0C4,26.5,3.2,30.7,3.2,34.9c0,4.3,0.8,8.5,2.2,12.4H20C20.1,47.3,26.9,47.3,30,41.5z"/>
	</g>
</g>
</svg>
